<svg xmlns="http://www.w3.org/2000/svg" viewBox="0 0 320 200" font-family="sans-serif" role="img" aria-label="狒狒鹰 抽象示意图">
  <defs>
    <linearGradient id="bg" x1="0" y1="0" x2="0" y2="1">
      <stop offset="0" stop-color="#14161a"/>
      <stop offset="1" stop-color="#1c2026"/>
    </linearGradient>
  </defs>
  <rect width="320" height="200" rx="12" fill="url(#bg)"/>
  <rect x="0" y="0" width="320" height="6" rx="3" fill="#3ba9ff" opacity="0.9"/>
  <rect x="0.75" y="0.75" width="318.5" height="198.5" rx="11" fill="none" stroke="#3ba9ff" stroke-width="1.5" opacity="0.7"/>
  <path d="M0 60 L320 60 M0 130 L320 130" stroke="#3ba9ff" stroke-width="0.5" opacity="0.08"/>
  <circle cx="20" cy="22" r="4" fill="#3ba9ff"/>
  <text x="32" y="26" fill="#3ba9ff" font-size="10" letter-spacing="2">OUTDOOR</text>

<path d="M125 100 L75 70 L95 102 L70 120 Z" fill="#3ba9ff" opacity="0.7"/>
<path d="M125 100 L175 70 L155 102 L180 120 Z" fill="#3ba9ff" opacity="0.7"/>
<ellipse cx="125" cy="108" rx="20" ry="26" fill="#3ba9ff" opacity="0.35"/>
<circle cx="125" cy="78" r="13" fill="#3ba9ff" opacity="0.9"/>
<path d="M125 84 L113 95 L125 92 Z" fill="#e8e8ec"/>
<path d="M112 70 L106 56 M138 70 L144 56" stroke="#3ba9ff" stroke-width="3" fill="none"/>
  <circle cx="22" cy="182" r="3.6" fill="#3ba9ff" opacity="0.45"/>
  <text x="302" y="170" text-anchor="end" fill="#e8e8ec" font-size="17" font-weight="700">狒狒鹰</text>
  <text x="302" y="186" text-anchor="end" fill="#8b92a0" font-size="10" font-family="sans-serif">Baboon Hawk</text>
</svg>
