<svg xmlns="http://www.w3.org/2000/svg" viewBox="0 0 320 200" font-family="sans-serif" role="img" aria-label="理发师 抽象示意图">
  <defs>
    <linearGradient id="bg" x1="0" y1="0" x2="0" y2="1">
      <stop offset="0" stop-color="#14161a"/>
      <stop offset="1" stop-color="#1c2026"/>
    </linearGradient>
  </defs>
  <rect width="320" height="200" rx="12" fill="url(#bg)"/>
  <rect x="0" y="0" width="320" height="6" rx="3" fill="#ff5470" opacity="0.9"/>
  <rect x="0.75" y="0.75" width="318.5" height="198.5" rx="11" fill="none" stroke="#ff5470" stroke-width="1.5" opacity="0.7"/>
  <path d="M0 60 L320 60 M0 130 L320 130" stroke="#ff5470" stroke-width="0.5" opacity="0.08"/>
  <circle cx="20" cy="22" r="4" fill="#ff5470"/>
  <text x="32" y="26" fill="#ff5470" font-size="10" letter-spacing="2">INDOOR</text>

<path d="M90 150 L160 60" stroke="#ff5470" stroke-width="6" stroke-linecap="round"/>
<path d="M160 150 L90 60" stroke="#ff5470" stroke-width="6" stroke-linecap="round" opacity="0.8"/>
<circle cx="86" cy="156" r="11" fill="none" stroke="#ff5470" stroke-width="4"/>
<circle cx="164" cy="156" r="11" fill="none" stroke="#ff5470" stroke-width="4" opacity="0.8"/>
<path d="M160 60 L178 38 L168 64 Z" fill="#ff5470"/>
<path d="M90 60 L72 38 L82 64 Z" fill="#ff5470" opacity="0.8"/>
<circle cx="125" cy="105" r="6" fill="#e8e8ec"/>
  <circle cx="22" cy="182" r="3.6" fill="#ff5470" opacity="1"/>
  <text x="302" y="170" text-anchor="end" fill="#e8e8ec" font-size="17" font-weight="700">理发师</text>
  <text x="302" y="186" text-anchor="end" fill="#8b92a0" font-size="10" font-family="sans-serif">Barber</text>
</svg>
