<svg xmlns="http://www.w3.org/2000/svg" viewBox="0 0 320 200" font-family="sans-serif" role="img" aria-label="蕨影 抽象示意图">
  <defs>
    <linearGradient id="bg" x1="0" y1="0" x2="0" y2="1">
      <stop offset="0" stop-color="#14161a"/>
      <stop offset="1" stop-color="#1c2026"/>
    </linearGradient>
  </defs>
  <rect width="320" height="200" rx="12" fill="url(#bg)"/>
  <rect x="0" y="0" width="320" height="6" rx="3" fill="#ff5470" opacity="0.9"/>
  <rect x="0.75" y="0.75" width="318.5" height="198.5" rx="11" fill="none" stroke="#ff5470" stroke-width="1.5" opacity="0.7"/>
  <path d="M0 60 L320 60 M0 130 L320 130" stroke="#ff5470" stroke-width="0.5" opacity="0.08"/>
  <circle cx="20" cy="22" r="4" fill="#ff5470"/>
  <text x="32" y="26" fill="#ff5470" font-size="10" letter-spacing="2">INDOOR</text>

<path d="M125 165 C95 140 85 105 100 70 C110 45 125 38 125 38 C125 38 140 45 150 70 C165 105 155 140 125 165 Z" fill="#ff5470" opacity="0.35"/>
<path d="M125 160 L125 45" stroke="#ff5470" stroke-width="3"/>
<path d="M125 140 L98 122 M125 120 L103 100 M125 100 L108 82 M125 140 L152 122 M125 120 L147 100 M125 100 L142 82" stroke="#ff5470" stroke-width="2.5" fill="none"/>
<circle cx="116" cy="62" r="3.5" fill="#ff3344"/>
<circle cx="134" cy="62" r="3.5" fill="#ff3344"/>
  <circle cx="22" cy="182" r="3.6" fill="#ff5470" opacity="1"/><circle cx="34" cy="182" r="3.6" fill="#ff5470" opacity="1"/><circle cx="46" cy="182" r="3.6" fill="#ff5470" opacity="1"/>
  <text x="302" y="170" text-anchor="end" fill="#e8e8ec" font-size="17" font-weight="700">蕨影</text>
  <text x="302" y="186" text-anchor="end" fill="#8b92a0" font-size="10" font-family="sans-serif">Bracken</text>
</svg>
