<svg xmlns="http://www.w3.org/2000/svg" viewBox="0 0 320 200" font-family="sans-serif" role="img" aria-label="地堡蜘蛛 抽象示意图">
  <defs>
    <linearGradient id="bg" x1="0" y1="0" x2="0" y2="1">
      <stop offset="0" stop-color="#14161a"/>
      <stop offset="1" stop-color="#1c2026"/>
    </linearGradient>
  </defs>
  <rect width="320" height="200" rx="12" fill="url(#bg)"/>
  <rect x="0" y="0" width="320" height="6" rx="3" fill="#ff5470" opacity="0.9"/>
  <rect x="0.75" y="0.75" width="318.5" height="198.5" rx="11" fill="none" stroke="#ff5470" stroke-width="1.5" opacity="0.7"/>
  <path d="M0 60 L320 60 M0 130 L320 130" stroke="#ff5470" stroke-width="0.5" opacity="0.08"/>
  <circle cx="20" cy="22" r="4" fill="#ff5470"/>
  <text x="32" y="26" fill="#ff5470" font-size="10" letter-spacing="2">INDOOR</text>

<ellipse cx="125" cy="105" rx="26" ry="20" fill="#ff5470" opacity="0.55"/>
<circle cx="125" cy="80" r="12" fill="#ff5470" opacity="0.8"/>
<path d="M104 98 L62 72 M106 108 L55 105 M108 118 L62 142 M112 124 L80 158" stroke="#ff5470" stroke-width="3.5" fill="none" stroke-linecap="round"/>
<path d="M146 98 L188 72 M144 108 L195 105 M142 118 L188 142 M138 124 L170 158" stroke="#ff5470" stroke-width="3.5" fill="none" stroke-linecap="round"/>
<circle cx="120" cy="77" r="2.5" fill="#e8e8ec"/><circle cx="130" cy="77" r="2.5" fill="#e8e8ec"/>
  <circle cx="22" cy="182" r="3.6" fill="#ff5470" opacity="1"/><circle cx="34" cy="182" r="3.6" fill="#ff5470" opacity="1"/>
  <text x="302" y="170" text-anchor="end" fill="#e8e8ec" font-size="17" font-weight="700">地堡蜘蛛</text>
  <text x="302" y="186" text-anchor="end" fill="#8b92a0" font-size="10" font-family="sans-serif">Bunker Spider</text>
</svg>
