<svg xmlns="http://www.w3.org/2000/svg" viewBox="0 0 320 200" font-family="sans-serif" role="img" aria-label="管家 抽象示意图">
  <defs>
    <linearGradient id="bg" x1="0" y1="0" x2="0" y2="1">
      <stop offset="0" stop-color="#14161a"/>
      <stop offset="1" stop-color="#1c2026"/>
    </linearGradient>
  </defs>
  <rect width="320" height="200" rx="12" fill="url(#bg)"/>
  <rect x="0" y="0" width="320" height="6" rx="3" fill="#ff5470" opacity="0.9"/>
  <rect x="0.75" y="0.75" width="318.5" height="198.5" rx="11" fill="none" stroke="#ff5470" stroke-width="1.5" opacity="0.7"/>
  <path d="M0 60 L320 60 M0 130 L320 130" stroke="#ff5470" stroke-width="0.5" opacity="0.08"/>
  <circle cx="20" cy="22" r="4" fill="#ff5470"/>
  <text x="32" y="26" fill="#ff5470" font-size="10" letter-spacing="2">INDOOR</text>

<path d="M125 60 C150 60 158 95 152 130 L98 130 C92 95 100 60 125 60 Z" fill="#ff5470" opacity="0.45"/>
<circle cx="125" cy="50" r="13" fill="#ff5470" opacity="0.85"/>
<path d="M113 72 L125 80 L137 72 L125 64 Z" fill="#e8e8ec"/>
<rect x="98" y="130" width="54" height="28" rx="4" fill="#ff5470" opacity="0.3"/>
<path d="M168 50 L168 150" stroke="#ff5470" stroke-width="4"/>
<path d="M160 150 L176 150 L172 168 L164 168 Z" fill="#ff5470" opacity="0.8"/>
  <circle cx="22" cy="182" r="3.6" fill="#ff5470" opacity="1"/><circle cx="34" cy="182" r="3.6" fill="#ff5470" opacity="1"/>
  <text x="302" y="170" text-anchor="end" fill="#e8e8ec" font-size="17" font-weight="700">管家</text>
  <text x="302" y="186" text-anchor="end" fill="#8b92a0" font-size="10" font-family="sans-serif">Butler</text>
</svg>
