<svg xmlns="http://www.w3.org/2000/svg" viewBox="0 0 320 200" font-family="sans-serif" role="img" aria-label="Cadaver Growth 抽象示意图">
  <defs>
    <linearGradient id="bg" x1="0" y1="0" x2="0" y2="1">
      <stop offset="0" stop-color="#14161a"/>
      <stop offset="1" stop-color="#1c2026"/>
    </linearGradient>
  </defs>
  <rect width="320" height="200" rx="12" fill="url(#bg)"/>
  <rect x="0" y="0" width="320" height="6" rx="3" fill="#ff5470" opacity="0.9"/>
  <rect x="0.75" y="0.75" width="318.5" height="198.5" rx="11" fill="none" stroke="#ff5470" stroke-width="1.5" opacity="0.7"/>
  <path d="M0 60 L320 60 M0 130 L320 130" stroke="#ff5470" stroke-width="0.5" opacity="0.08"/>
  <circle cx="20" cy="22" r="4" fill="#ff5470"/>
  <text x="32" y="26" fill="#ff5470" font-size="10" letter-spacing="2">INDOOR</text>

<path d="M60 160 C70 120 95 100 125 102 C158 104 182 128 190 160 Z" fill="#ff5470" opacity="0.45"/>
<path d="M95 112 C90 92 100 78 96 62 M125 102 C128 84 118 72 124 52 M158 116 C165 96 156 84 162 66" stroke="#ff5470" stroke-width="3.5" fill="none" stroke-linecap="round"/>
<circle cx="96" cy="58" r="5" fill="#ff5470" opacity="0.8"/>
<circle cx="124" cy="48" r="6" fill="#ff5470" opacity="0.8"/>
<circle cx="162" cy="62" r="5" fill="#ff5470" opacity="0.8"/>
  <circle cx="22" cy="182" r="3.6" fill="#ff5470" opacity="1"/><circle cx="34" cy="182" r="3.6" fill="#ff5470" opacity="1"/>
  <text x="302" y="170" text-anchor="end" fill="#e8e8ec" font-size="17" font-weight="700">Cadaver Growth</text>
  
</svg>
