<svg xmlns="http://www.w3.org/2000/svg" viewBox="0 0 320 200" font-family="sans-serif" role="img" aria-label="电路蜂群 抽象示意图">
  <defs>
    <linearGradient id="bg" x1="0" y1="0" x2="0" y2="1">
      <stop offset="0" stop-color="#14161a"/>
      <stop offset="1" stop-color="#1c2026"/>
    </linearGradient>
  </defs>
  <rect width="320" height="200" rx="12" fill="url(#bg)"/>
  <rect x="0" y="0" width="320" height="6" rx="3" fill="#ffd84e" opacity="0.9"/>
  <rect x="0.75" y="0.75" width="318.5" height="198.5" rx="11" fill="none" stroke="#ffd84e" stroke-width="1.5" opacity="0.7"/>
  <path d="M0 60 L320 60 M0 130 L320 130" stroke="#ffd84e" stroke-width="0.5" opacity="0.08"/>
  <circle cx="20" cy="22" r="4" fill="#ffd84e"/>
  <text x="32" y="26" fill="#ffd84e" font-size="10" letter-spacing="2">DAYTIME</text>

<rect x="95" y="118" width="60" height="42" rx="5" fill="#ffd84e" opacity="0.35"/>
<path d="M95 132 L155 132 M95 146 L155 146" stroke="#ffd84e" stroke-width="2" opacity="0.6"/>
<path d="M118 108 L130 92 L122 92 L134 74" stroke="#ffd84e" stroke-width="3.5" fill="none" stroke-linecap="round"/>
<circle cx="86" cy="74" r="6" fill="#ffd84e"/><ellipse cx="86" cy="65" rx="8" ry="4" fill="#ffd84e" opacity="0.4"/>
<circle cx="160" cy="58" r="6" fill="#ffd84e"/><ellipse cx="160" cy="49" rx="8" ry="4" fill="#ffd84e" opacity="0.4"/>
<circle cx="186" cy="96" r="6" fill="#ffd84e"/><ellipse cx="186" cy="87" rx="8" ry="4" fill="#ffd84e" opacity="0.4"/>
<circle cx="62" cy="108" r="5" fill="#ffd84e" opacity="0.8"/>
  <circle cx="22" cy="182" r="3.6" fill="#ffd84e" opacity="1"/>
  <text x="302" y="170" text-anchor="end" fill="#e8e8ec" font-size="17" font-weight="700">电路蜂群</text>
  <text x="302" y="186" text-anchor="end" fill="#8b92a0" font-size="10" font-family="sans-serif">Circuit Bees</text>
</svg>
