<svg xmlns="http://www.w3.org/2000/svg" viewBox="0 0 320 200" font-family="sans-serif" role="img" aria-label="大地利维坦 抽象示意图">
  <defs>
    <linearGradient id="bg" x1="0" y1="0" x2="0" y2="1">
      <stop offset="0" stop-color="#14161a"/>
      <stop offset="1" stop-color="#1c2026"/>
    </linearGradient>
  </defs>
  <rect width="320" height="200" rx="12" fill="url(#bg)"/>
  <rect x="0" y="0" width="320" height="6" rx="3" fill="#3ba9ff" opacity="0.9"/>
  <rect x="0.75" y="0.75" width="318.5" height="198.5" rx="11" fill="none" stroke="#3ba9ff" stroke-width="1.5" opacity="0.7"/>
  <path d="M0 60 L320 60 M0 130 L320 130" stroke="#3ba9ff" stroke-width="0.5" opacity="0.08"/>
  <circle cx="20" cy="22" r="4" fill="#3ba9ff"/>
  <text x="32" y="26" fill="#3ba9ff" font-size="10" letter-spacing="2">OUTDOOR</text>

<path d="M40 158 L210 158" stroke="#3ba9ff" stroke-width="3" opacity="0.5"/>
<path d="M70 158 C70 90 180 90 180 158" fill="none" stroke="#3ba9ff" stroke-width="14" stroke-linecap="round" opacity="0.75"/>
<path d="M70 158 C70 90 180 90 180 158" fill="none" stroke="#3ba9ff" stroke-width="5" opacity="0.35" stroke-dasharray="4 8"/>
<path d="M58 150 L48 132 L66 142 Z" fill="#3ba9ff" opacity="0.5"/>
<path d="M192 150 L204 130 L186 140 Z" fill="#3ba9ff" opacity="0.5"/>
<path d="M120 96 L114 80 L126 88 Z" fill="#3ba9ff" opacity="0.45"/>
  <circle cx="22" cy="182" r="3.6" fill="#3ba9ff" opacity="1"/><circle cx="34" cy="182" r="3.6" fill="#3ba9ff" opacity="1"/>
  <text x="302" y="170" text-anchor="end" fill="#e8e8ec" font-size="17" font-weight="700">大地利维坦</text>
  <text x="302" y="186" text-anchor="end" fill="#8b92a0" font-size="10" font-family="sans-serif">Earth Leviathan</text>
</svg>
