<svg xmlns="http://www.w3.org/2000/svg" viewBox="0 0 320 200" font-family="sans-serif" role="img" aria-label="无眼狗 抽象示意图">
  <defs>
    <linearGradient id="bg" x1="0" y1="0" x2="0" y2="1">
      <stop offset="0" stop-color="#14161a"/>
      <stop offset="1" stop-color="#1c2026"/>
    </linearGradient>
  </defs>
  <rect width="320" height="200" rx="12" fill="url(#bg)"/>
  <rect x="0" y="0" width="320" height="6" rx="3" fill="#3ba9ff" opacity="0.9"/>
  <rect x="0.75" y="0.75" width="318.5" height="198.5" rx="11" fill="none" stroke="#3ba9ff" stroke-width="1.5" opacity="0.7"/>
  <path d="M0 60 L320 60 M0 130 L320 130" stroke="#3ba9ff" stroke-width="0.5" opacity="0.08"/>
  <circle cx="20" cy="22" r="4" fill="#3ba9ff"/>
  <text x="32" y="26" fill="#3ba9ff" font-size="10" letter-spacing="2">OUTDOOR</text>

<path d="M70 140 L70 100 C70 84 92 78 112 80 L160 84 C178 86 190 96 190 110 L190 140" fill="#3ba9ff" opacity="0.45"/>
<path d="M78 140 L78 162 M100 140 L100 162 M158 140 L158 162 M180 140 L180 162" stroke="#3ba9ff" stroke-width="6" stroke-linecap="round"/>
<path d="M60 92 C48 92 42 102 46 112 L70 108 Z" fill="#3ba9ff" opacity="0.75"/>
<path d="M46 112 L70 118 L62 124 Z" fill="#e8e8ec" opacity="0.8"/>
<path d="M86 80 L80 64 L94 74 Z" fill="#3ba9ff" opacity="0.6"/>
  <circle cx="22" cy="182" r="3.6" fill="#3ba9ff" opacity="1"/><circle cx="34" cy="182" r="3.6" fill="#3ba9ff" opacity="1"/>
  <text x="302" y="170" text-anchor="end" fill="#e8e8ec" font-size="17" font-weight="700">无眼狗</text>
  <text x="302" y="186" text-anchor="end" fill="#8b92a0" font-size="10" font-family="sans-serif">Eyeless Dog</text>
</svg>
