<svg xmlns="http://www.w3.org/2000/svg" viewBox="0 0 320 200" font-family="sans-serif" role="img" aria-label="翡奥帕 抽象示意图">
  <defs>
    <linearGradient id="bg" x1="0" y1="0" x2="0" y2="1">
      <stop offset="0" stop-color="#14161a"/>
      <stop offset="1" stop-color="#1c2026"/>
    </linearGradient>
  </defs>
  <rect width="320" height="200" rx="12" fill="url(#bg)"/>
  <rect x="0" y="0" width="320" height="6" rx="3" fill="#3ba9ff" opacity="0.9"/>
  <rect x="0.75" y="0.75" width="318.5" height="198.5" rx="11" fill="none" stroke="#3ba9ff" stroke-width="1.5" opacity="0.7"/>
  <path d="M0 60 L320 60 M0 130 L320 130" stroke="#3ba9ff" stroke-width="0.5" opacity="0.08"/>
  <circle cx="20" cy="22" r="4" fill="#3ba9ff"/>
  <text x="32" y="26" fill="#3ba9ff" font-size="10" letter-spacing="2">OUTDOOR</text>

<path d="M75 145 C70 110 95 92 125 92 C155 92 178 105 182 132 L182 145" fill="#3ba9ff" opacity="0.45"/>
<circle cx="186" cy="86" r="14" fill="#3ba9ff" opacity="0.8"/>
<path d="M178 74 L172 60 L184 68 Z" fill="#3ba9ff"/>
<path d="M196 74 L202 60 L190 68 Z" fill="#3ba9ff"/>
<path d="M75 130 C50 125 42 100 52 82" stroke="#3ba9ff" stroke-width="5" fill="none" stroke-linecap="round"/>
<path d="M92 145 L92 162 M118 145 L118 162 M152 145 L152 162 M174 145 L174 162" stroke="#3ba9ff" stroke-width="5" stroke-linecap="round"/>
  <circle cx="22" cy="182" r="3.6" fill="#3ba9ff" opacity="1"/><circle cx="34" cy="182" r="3.6" fill="#3ba9ff" opacity="1"/>
  <text x="302" y="170" text-anchor="end" fill="#e8e8ec" font-size="17" font-weight="700">翡奥帕</text>
  <text x="302" y="186" text-anchor="end" fill="#8b92a0" font-size="10" font-family="sans-serif">Feiopar</text>
</svg>
