<svg xmlns="http://www.w3.org/2000/svg" viewBox="0 0 320 200" font-family="sans-serif" role="img" aria-label="巨型啄木鸟 抽象示意图">
  <defs>
    <linearGradient id="bg" x1="0" y1="0" x2="0" y2="1">
      <stop offset="0" stop-color="#14161a"/>
      <stop offset="1" stop-color="#1c2026"/>
    </linearGradient>
  </defs>
  <rect width="320" height="200" rx="12" fill="url(#bg)"/>
  <rect x="0" y="0" width="320" height="6" rx="3" fill="#ffd84e" opacity="0.9"/>
  <rect x="0.75" y="0.75" width="318.5" height="198.5" rx="11" fill="none" stroke="#ffd84e" stroke-width="1.5" opacity="0.7"/>
  <path d="M0 60 L320 60 M0 130 L320 130" stroke="#ffd84e" stroke-width="0.5" opacity="0.08"/>
  <circle cx="20" cy="22" r="4" fill="#ffd84e"/>
  <text x="32" y="26" fill="#ffd84e" font-size="10" letter-spacing="2">DAYTIME</text>

<ellipse cx="120" cy="105" rx="34" ry="42" fill="#ffd84e" opacity="0.45"/>
<circle cx="140" cy="58" r="15" fill="#ffd84e" opacity="0.85"/>
<path d="M153 56 L196 48 L155 66 Z" fill="#ffd84e"/>
<path d="M96 92 L52 70 L70 104 L48 118 L96 118 Z" fill="#ffd84e" opacity="0.65"/>
<path d="M110 147 L104 168 M132 147 L138 168" stroke="#ffd84e" stroke-width="4.5" stroke-linecap="round"/>
<circle cx="137" cy="53" r="3" fill="#14161a"/>
  <circle cx="22" cy="182" r="3.6" fill="#ffd84e" opacity="1"/><circle cx="34" cy="182" r="3.6" fill="#ffd84e" opacity="1"/><circle cx="46" cy="182" r="3.6" fill="#ffd84e" opacity="1"/><circle cx="58" cy="182" r="3.6" fill="#ffd84e" opacity="1"/>
  <text x="302" y="170" text-anchor="end" fill="#e8e8ec" font-size="17" font-weight="700">巨型啄木鸟</text>
  <text x="302" y="186" text-anchor="end" fill="#8b92a0" font-size="10" font-family="sans-serif">Giant Sapsucker</text>
</svg>
