<svg xmlns="http://www.w3.org/2000/svg" viewBox="0 0 320 200" font-family="sans-serif" role="img" aria-label="囤积虫 抽象示意图">
  <defs>
    <linearGradient id="bg" x1="0" y1="0" x2="0" y2="1">
      <stop offset="0" stop-color="#14161a"/>
      <stop offset="1" stop-color="#1c2026"/>
    </linearGradient>
  </defs>
  <rect width="320" height="200" rx="12" fill="url(#bg)"/>
  <rect x="0" y="0" width="320" height="6" rx="3" fill="#ff5470" opacity="0.9"/>
  <rect x="0.75" y="0.75" width="318.5" height="198.5" rx="11" fill="none" stroke="#ff5470" stroke-width="1.5" opacity="0.7"/>
  <path d="M0 60 L320 60 M0 130 L320 130" stroke="#ff5470" stroke-width="0.5" opacity="0.08"/>
  <circle cx="20" cy="22" r="4" fill="#ff5470"/>
  <text x="32" y="26" fill="#ff5470" font-size="10" letter-spacing="2">INDOOR</text>

<ellipse cx="118" cy="108" rx="30" ry="22" fill="#ff5470" opacity="0.55"/>
<circle cx="150" cy="92" r="11" fill="#ff5470" opacity="0.85"/>
<path d="M154 84 L166 68 M158 88 L174 78" stroke="#ff5470" stroke-width="2.5" fill="none"/>
<ellipse cx="100" cy="84" rx="22" ry="10" fill="#ff5470" opacity="0.3" transform="rotate(-28 100 84)"/>
<ellipse cx="86" cy="100" rx="20" ry="8" fill="#ff5470" opacity="0.25" transform="rotate(-12 86 100)"/>
<path d="M104 126 L96 142 M120 128 L118 146 M136 124 L144 140" stroke="#ff5470" stroke-width="3"/>
<rect x="150" y="120" width="26" height="20" rx="3" fill="#e8e8ec" opacity="0.75"/>
<path d="M144 110 L156 122" stroke="#ff5470" stroke-width="3"/>
  <circle cx="22" cy="182" r="3.6" fill="#ff5470" opacity="1"/>
  <text x="302" y="170" text-anchor="end" fill="#e8e8ec" font-size="17" font-weight="700">囤积虫</text>
  <text x="302" y="186" text-anchor="end" fill="#8b92a0" font-size="10" font-family="sans-serif">Hoarding Bug</text>
</svg>
