<svg xmlns="http://www.w3.org/2000/svg" viewBox="0 0 320 200" font-family="sans-serif" role="img" aria-label="湿滑胶体 抽象示意图">
  <defs>
    <linearGradient id="bg" x1="0" y1="0" x2="0" y2="1">
      <stop offset="0" stop-color="#14161a"/>
      <stop offset="1" stop-color="#1c2026"/>
    </linearGradient>
  </defs>
  <rect width="320" height="200" rx="12" fill="url(#bg)"/>
  <rect x="0" y="0" width="320" height="6" rx="3" fill="#ff5470" opacity="0.9"/>
  <rect x="0.75" y="0.75" width="318.5" height="198.5" rx="11" fill="none" stroke="#ff5470" stroke-width="1.5" opacity="0.7"/>
  <path d="M0 60 L320 60 M0 130 L320 130" stroke="#ff5470" stroke-width="0.5" opacity="0.08"/>
  <circle cx="20" cy="22" r="4" fill="#ff5470"/>
  <text x="32" y="26" fill="#ff5470" font-size="10" letter-spacing="2">INDOOR</text>

<path d="M62 150 C58 120 80 108 95 114 C98 92 130 88 140 104 C158 92 184 104 182 124 C196 130 196 146 188 150 Z" fill="#ff5470" opacity="0.45"/>
<circle cx="100" cy="128" r="6" fill="#ff5470" opacity="0.5"/>
<circle cx="135" cy="118" r="8" fill="#ff5470" opacity="0.4"/>
<circle cx="162" cy="132" r="5" fill="#ff5470" opacity="0.55"/>
<circle cx="118" cy="140" r="4" fill="#e8e8ec" opacity="0.35"/>
<path d="M62 150 L188 150" stroke="#ff5470" stroke-width="2" opacity="0.6"/>
  <circle cx="22" cy="182" r="3.6" fill="#ff5470" opacity="1"/>
  <text x="302" y="170" text-anchor="end" fill="#e8e8ec" font-size="17" font-weight="700">湿滑胶体</text>
  <text x="302" y="186" text-anchor="end" fill="#8b92a0" font-size="10" font-family="sans-serif">Hygrodere</text>
</svg>
