<svg xmlns="http://www.w3.org/2000/svg" viewBox="0 0 320 200" font-family="sans-serif" role="img" aria-label="小丑盒子 抽象示意图">
  <defs>
    <linearGradient id="bg" x1="0" y1="0" x2="0" y2="1">
      <stop offset="0" stop-color="#14161a"/>
      <stop offset="1" stop-color="#1c2026"/>
    </linearGradient>
  </defs>
  <rect width="320" height="200" rx="12" fill="url(#bg)"/>
  <rect x="0" y="0" width="320" height="6" rx="3" fill="#ff5470" opacity="0.9"/>
  <rect x="0.75" y="0.75" width="318.5" height="198.5" rx="11" fill="none" stroke="#ff5470" stroke-width="1.5" opacity="0.7"/>
  <path d="M0 60 L320 60 M0 130 L320 130" stroke="#ff5470" stroke-width="0.5" opacity="0.08"/>
  <circle cx="20" cy="22" r="4" fill="#ff5470"/>
  <text x="32" y="26" fill="#ff5470" font-size="10" letter-spacing="2">INDOOR</text>

<rect x="92" y="92" width="66" height="62" rx="6" fill="#ff5470" opacity="0.5"/>
<path d="M92 92 L158 92" stroke="#ff5470" stroke-width="3"/>
<path d="M158 118 C180 118 180 100 192 100" stroke="#ff5470" stroke-width="4" fill="none"/>
<circle cx="194" cy="100" r="6" fill="#ff5470"/>
<path d="M115.0 62.0 L135.0 66.7 L115.0 71.3 L135.0 76.0 L115.0 80.7 L135.0 85.3 L115.0 90.0" stroke="#ff5470" stroke-width="3.5" fill="none"/>
<circle cx="125" cy="48" r="11" fill="#ff5470" opacity="0.85"/>
<path d="M117 40 L108 26 M133 40 L142 26" stroke="#ff5470" stroke-width="3" stroke-linecap="round"/>
<circle cx="108" cy="24" r="3.5" fill="#ff5470"/><circle cx="142" cy="24" r="3.5" fill="#ff5470"/>
<rect x="86" y="154" width="78" height="10" rx="3" fill="#ff5470" opacity="0.3"/>
  <circle cx="22" cy="182" r="3.6" fill="#ff5470" opacity="1"/><circle cx="34" cy="182" r="3.6" fill="#ff5470" opacity="1"/><circle cx="46" cy="182" r="3.6" fill="#ff5470" opacity="1"/>
  <text x="302" y="170" text-anchor="end" fill="#e8e8ec" font-size="17" font-weight="700">小丑盒子</text>
  <text x="302" y="186" text-anchor="end" fill="#8b92a0" font-size="10" font-family="sans-serif">Jester</text>
</svg>
