<svg xmlns="http://www.w3.org/2000/svg" viewBox="0 0 320 200" font-family="sans-serif" role="img" aria-label="绑匪狐狸 抽象示意图">
  <defs>
    <linearGradient id="bg" x1="0" y1="0" x2="0" y2="1">
      <stop offset="0" stop-color="#14161a"/>
      <stop offset="1" stop-color="#1c2026"/>
    </linearGradient>
  </defs>
  <rect width="320" height="200" rx="12" fill="url(#bg)"/>
  <rect x="0" y="0" width="320" height="6" rx="3" fill="#3ba9ff" opacity="0.9"/>
  <rect x="0.75" y="0.75" width="318.5" height="198.5" rx="11" fill="none" stroke="#3ba9ff" stroke-width="1.5" opacity="0.7"/>
  <path d="M0 60 L320 60 M0 130 L320 130" stroke="#3ba9ff" stroke-width="0.5" opacity="0.08"/>
  <circle cx="20" cy="22" r="4" fill="#3ba9ff"/>
  <text x="32" y="26" fill="#3ba9ff" font-size="10" letter-spacing="2">OUTDOOR</text>

<path d="M72 142 C72 112 96 100 124 102 L168 106 C184 108 192 118 192 130 L192 142" fill="#3ba9ff" opacity="0.45"/>
<path d="M196 96 C210 96 214 108 208 116 L186 112 Z" fill="#3ba9ff" opacity="0.8"/>
<path d="M192 92 L188 74 L200 86 Z" fill="#3ba9ff"/>
<path d="M206 92 L214 76 L212 92 Z" fill="#3ba9ff"/>
<path d="M208 116 C200 132 178 138 162 132" stroke="#ff3344" stroke-width="3.5" fill="none" stroke-linecap="round"/>
<path d="M80 142 L80 162 M104 142 L104 162 M158 142 L158 162 M184 142 L184 162" stroke="#3ba9ff" stroke-width="5" stroke-linecap="round"/>
<path d="M72 122 C52 116 46 98 56 84" stroke="#3ba9ff" stroke-width="6" fill="none" stroke-linecap="round"/>
  <circle cx="22" cy="182" r="3.6" fill="#3ba9ff" opacity="1"/>
  <text x="302" y="170" text-anchor="end" fill="#e8e8ec" font-size="17" font-weight="700">绑匪狐狸</text>
  <text x="302" y="186" text-anchor="end" fill="#8b92a0" font-size="10" font-family="sans-serif">Kidnapper fox</text>
</svg>
