<svg xmlns="http://www.w3.org/2000/svg" viewBox="0 0 320 200" font-family="sans-serif" role="img" aria-label="食人魔 抽象示意图">
  <defs>
    <linearGradient id="bg" x1="0" y1="0" x2="0" y2="1">
      <stop offset="0" stop-color="#14161a"/>
      <stop offset="1" stop-color="#1c2026"/>
    </linearGradient>
  </defs>
  <rect width="320" height="200" rx="12" fill="url(#bg)"/>
  <rect x="0" y="0" width="320" height="6" rx="3" fill="#ff5470" opacity="0.9"/>
  <rect x="0.75" y="0.75" width="318.5" height="198.5" rx="11" fill="none" stroke="#ff5470" stroke-width="1.5" opacity="0.7"/>
  <path d="M0 60 L320 60 M0 130 L320 130" stroke="#ff5470" stroke-width="0.5" opacity="0.08"/>
  <circle cx="20" cy="22" r="4" fill="#ff5470"/>
  <text x="32" y="26" fill="#ff5470" font-size="10" letter-spacing="2">INDOOR</text>

<path d="M125 52 C160 52 175 86 168 122 C162 150 145 162 125 162 C105 162 88 150 82 122 C75 86 90 52 125 52 Z" fill="#ff5470" opacity="0.4"/>
<path d="M92 108 L102 118 L112 106 L122 118 L132 106 L142 118 L152 106 L158 114" stroke="#ff5470" stroke-width="3.5" fill="none" stroke-linejoin="round"/>
<circle cx="110" cy="84" r="4" fill="#ff5470"/><circle cx="140" cy="84" r="4" fill="#ff5470"/>
<path d="M125 162 L125 174" stroke="#ff5470" stroke-width="3" opacity="0.5"/>
  <circle cx="22" cy="182" r="3.6" fill="#ff5470" opacity="1"/><circle cx="34" cy="182" r="3.6" fill="#ff5470" opacity="1"/>
  <text x="302" y="170" text-anchor="end" fill="#e8e8ec" font-size="17" font-weight="700">食人魔</text>
  <text x="302" y="186" text-anchor="end" fill="#8b92a0" font-size="10" font-family="sans-serif">Maneater</text>
</svg>
