<svg xmlns="http://www.w3.org/2000/svg" viewBox="0 0 320 200" font-family="sans-serif" role="img" aria-label="面具虫 抽象示意图">
  <defs>
    <linearGradient id="bg" x1="0" y1="0" x2="0" y2="1">
      <stop offset="0" stop-color="#14161a"/>
      <stop offset="1" stop-color="#1c2026"/>
    </linearGradient>
  </defs>
  <rect width="320" height="200" rx="12" fill="url(#bg)"/>
  <rect x="0" y="0" width="320" height="6" rx="3" fill="#ff5470" opacity="0.9"/>
  <rect x="0.75" y="0.75" width="318.5" height="198.5" rx="11" fill="none" stroke="#ff5470" stroke-width="1.5" opacity="0.7"/>
  <path d="M0 60 L320 60 M0 130 L320 130" stroke="#ff5470" stroke-width="0.5" opacity="0.08"/>
  <circle cx="20" cy="22" r="4" fill="#ff5470"/>
  <text x="32" y="26" fill="#ff5470" font-size="10" letter-spacing="2">INDOOR</text>

<path d="M100 70 C100 56 150 56 150 70 L148 108 C148 124 102 124 102 108 Z" fill="#ff5470" opacity="0.4"/>
<circle cx="114" cy="80" r="4" fill="#14161a" stroke="#ff5470" stroke-width="2"/>
<circle cx="136" cy="80" r="4" fill="#14161a" stroke="#ff5470" stroke-width="2"/>
<path d="M112 100 C120 108 130 108 138 100" stroke="#ff5470" stroke-width="2.5" fill="none"/>
<circle cx="78" cy="132" r="4" fill="#ff5470"/><ellipse cx="78" cy="126" rx="6" ry="3" fill="#ff5470" opacity="0.4"/>
<circle cx="170" cy="124" r="4" fill="#ff5470"/><ellipse cx="170" cy="118" rx="6" ry="3" fill="#ff5470" opacity="0.4"/>
<circle cx="150" cy="150" r="4" fill="#ff5470"/><ellipse cx="150" cy="144" rx="6" ry="3" fill="#ff5470" opacity="0.4"/>
<circle cx="98" cy="152" r="3.5" fill="#ff5470" opacity="0.8"/>
  <circle cx="22" cy="182" r="3.6" fill="#ff5470" opacity="1"/><circle cx="34" cy="182" r="3.6" fill="#ff5470" opacity="1"/>
  <text x="302" y="170" text-anchor="end" fill="#e8e8ec" font-size="17" font-weight="700">面具虫</text>
  <text x="302" y="186" text-anchor="end" fill="#8b92a0" font-size="10" font-family="sans-serif">Mask Hornets</text>
</svg>
