<svg xmlns="http://www.w3.org/2000/svg" viewBox="0 0 320 200" font-family="sans-serif" role="img" aria-label="胡桃夹子 抽象示意图">
  <defs>
    <linearGradient id="bg" x1="0" y1="0" x2="0" y2="1">
      <stop offset="0" stop-color="#14161a"/>
      <stop offset="1" stop-color="#1c2026"/>
    </linearGradient>
  </defs>
  <rect width="320" height="200" rx="12" fill="url(#bg)"/>
  <rect x="0" y="0" width="320" height="6" rx="3" fill="#ff5470" opacity="0.9"/>
  <rect x="0.75" y="0.75" width="318.5" height="198.5" rx="11" fill="none" stroke="#ff5470" stroke-width="1.5" opacity="0.7"/>
  <path d="M0 60 L320 60 M0 130 L320 130" stroke="#ff5470" stroke-width="0.5" opacity="0.08"/>
  <circle cx="20" cy="22" r="4" fill="#ff5470"/>
  <text x="32" y="26" fill="#ff5470" font-size="10" letter-spacing="2">INDOOR</text>

<rect x="108" y="30" width="34" height="26" rx="3" fill="#ff5470" opacity="0.7"/>
<rect x="106" y="56" width="38" height="34" rx="4" fill="#ff5470" opacity="0.5"/>
<circle cx="125" cy="70" r="6" fill="#e8e8ec"/>
<circle cx="125" cy="70" r="2.5" fill="#14161a"/>
<rect x="102" y="90" width="46" height="36" rx="4" fill="#ff5470" opacity="0.4"/>
<path d="M112 126 L112 162 M138 126 L138 162" stroke="#ff5470" stroke-width="7" stroke-linecap="round"/>
<path d="M158 80 L158 150" stroke="#ff5470" stroke-width="4"/>
<path d="M154 80 L162 80 L158 64 Z" fill="#ff5470"/>
  <circle cx="22" cy="182" r="3.6" fill="#ff5470" opacity="1"/>
  <text x="302" y="170" text-anchor="end" fill="#e8e8ec" font-size="17" font-weight="700">胡桃夹子</text>
  <text x="302" y="186" text-anchor="end" fill="#8b92a0" font-size="10" font-family="sans-serif">Nutcracker</text>
</svg>
