<svg xmlns="http://www.w3.org/2000/svg" viewBox="0 0 320 200" font-family="sans-serif" role="img" aria-label="漫游蝗虫 抽象示意图">
  <defs>
    <linearGradient id="bg" x1="0" y1="0" x2="0" y2="1">
      <stop offset="0" stop-color="#14161a"/>
      <stop offset="1" stop-color="#1c2026"/>
    </linearGradient>
  </defs>
  <rect width="320" height="200" rx="12" fill="url(#bg)"/>
  <rect x="0" y="0" width="320" height="6" rx="3" fill="#ffd84e" opacity="0.9"/>
  <rect x="0.75" y="0.75" width="318.5" height="198.5" rx="11" fill="none" stroke="#ffd84e" stroke-width="1.5" opacity="0.7"/>
  <path d="M0 60 L320 60 M0 130 L320 130" stroke="#ffd84e" stroke-width="0.5" opacity="0.08"/>
  <circle cx="20" cy="22" r="4" fill="#ffd84e"/>
  <text x="32" y="26" fill="#ffd84e" font-size="10" letter-spacing="2">DAYTIME</text>

<g fill="#ffd84e">
<ellipse cx="90" cy="80" rx="5" ry="3"/><ellipse cx="118" cy="64" rx="5" ry="3"/><ellipse cx="150" cy="76" rx="5" ry="3"/>
<ellipse cx="172" cy="96" rx="5" ry="3"/><ellipse cx="104" cy="102" rx="5" ry="3"/><ellipse cx="136" cy="96" rx="5" ry="3"/>
<ellipse cx="80" cy="118" rx="5" ry="3"/><ellipse cx="160" cy="120" rx="5" ry="3"/><ellipse cx="120" cy="126" rx="5" ry="3"/>
<ellipse cx="142" cy="142" rx="5" ry="3"/><ellipse cx="98" cy="142" rx="5" ry="3"/>
</g>
<g fill="#ffd84e" opacity="0.35">
<circle cx="84" cy="74" r="2"/><circle cx="124" cy="58" r="2"/><circle cx="156" cy="70" r="2"/>
<circle cx="178" cy="90" r="2"/><circle cx="70" cy="100" r="2"/><circle cx="190" cy="118" r="2"/>
</g>
  <circle cx="22" cy="182" r="3.6" fill="#ffd84e" opacity="1"/>
  <text x="302" y="170" text-anchor="end" fill="#e8e8ec" font-size="17" font-weight="700">漫游蝗虫</text>
  <text x="302" y="186" text-anchor="end" fill="#8b92a0" font-size="10" font-family="sans-serif">Roaming Locusts</text>
</svg>
