<svg xmlns="http://www.w3.org/2000/svg" viewBox="0 0 320 200" font-family="sans-serif" role="img" aria-label="缠缚蚤 抽象示意图">
  <defs>
    <linearGradient id="bg" x1="0" y1="0" x2="0" y2="1">
      <stop offset="0" stop-color="#14161a"/>
      <stop offset="1" stop-color="#1c2026"/>
    </linearGradient>
  </defs>
  <rect width="320" height="200" rx="12" fill="url(#bg)"/>
  <rect x="0" y="0" width="320" height="6" rx="3" fill="#ff5470" opacity="0.9"/>
  <rect x="0.75" y="0.75" width="318.5" height="198.5" rx="11" fill="none" stroke="#ff5470" stroke-width="1.5" opacity="0.7"/>
  <path d="M0 60 L320 60 M0 130 L320 130" stroke="#ff5470" stroke-width="0.5" opacity="0.08"/>
  <circle cx="20" cy="22" r="4" fill="#ff5470"/>
  <text x="32" y="26" fill="#ff5470" font-size="10" letter-spacing="2">INDOOR</text>

<path d="M125 18 L125 64" stroke="#ff5470" stroke-width="2.5" stroke-dasharray="5 4"/>
<ellipse cx="125" cy="92" rx="28" ry="24" fill="#ff5470" opacity="0.55"/>
<path d="M102 104 L84 130 M112 112 L102 142 M138 112 L148 142 M148 104 L166 130" stroke="#ff5470" stroke-width="3.5" fill="none" stroke-linecap="round"/>
<path d="M118 114 L116 134 M132 114 L134 134" stroke="#ff5470" stroke-width="3" stroke-linecap="round"/>
<circle cx="118" cy="86" r="3" fill="#14161a"/><circle cx="132" cy="86" r="3" fill="#14161a"/>
<path d="M40 18 L210 18" stroke="#ff5470" stroke-width="4" opacity="0.5"/>
  <circle cx="22" cy="182" r="3.6" fill="#ff5470" opacity="1"/>
  <text x="302" y="170" text-anchor="end" fill="#e8e8ec" font-size="17" font-weight="700">缠缚蚤</text>
  <text x="302" y="186" text-anchor="end" fill="#8b92a0" font-size="10" font-family="sans-serif">Snare Flea</text>
</svg>
