<svg xmlns="http://www.w3.org/2000/svg" viewBox="0 0 320 200" font-family="sans-serif" role="img" aria-label="孢子蜥蜴 抽象示意图">
  <defs>
    <linearGradient id="bg" x1="0" y1="0" x2="0" y2="1">
      <stop offset="0" stop-color="#14161a"/>
      <stop offset="1" stop-color="#1c2026"/>
    </linearGradient>
  </defs>
  <rect width="320" height="200" rx="12" fill="url(#bg)"/>
  <rect x="0" y="0" width="320" height="6" rx="3" fill="#ff5470" opacity="0.9"/>
  <rect x="0.75" y="0.75" width="318.5" height="198.5" rx="11" fill="none" stroke="#ff5470" stroke-width="1.5" opacity="0.7"/>
  <path d="M0 60 L320 60 M0 130 L320 130" stroke="#ff5470" stroke-width="0.5" opacity="0.08"/>
  <circle cx="20" cy="22" r="4" fill="#ff5470"/>
  <text x="32" y="26" fill="#ff5470" font-size="10" letter-spacing="2">INDOOR</text>

<ellipse cx="112" cy="118" rx="42" ry="24" fill="#ff5470" opacity="0.5"/>
<circle cx="68" cy="104" r="14" fill="#ff5470" opacity="0.8"/>
<path d="M58 110 C50 114 50 120 58 122" stroke="#e8e8ec" stroke-width="2.5" fill="none"/>
<path d="M150 110 C176 100 186 80 180 60" stroke="#ff5470" stroke-width="6" fill="none" stroke-linecap="round"/>
<circle cx="180" cy="52" r="9" fill="#ff5470" opacity="0.5"/>
<circle cx="194" cy="44" r="6" fill="#ff5470" opacity="0.35"/>
<circle cx="170" cy="38" r="5" fill="#ff5470" opacity="0.3"/>
<path d="M88 138 L84 158 M110 142 L110 160 M134 138 L140 158" stroke="#ff5470" stroke-width="4.5" stroke-linecap="round"/>
  <circle cx="22" cy="182" r="3.6" fill="#ff5470" opacity="1"/>
  <text x="302" y="170" text-anchor="end" fill="#e8e8ec" font-size="17" font-weight="700">孢子蜥蜴</text>
  <text x="302" y="186" text-anchor="end" fill="#8b92a0" font-size="10" font-family="sans-serif">Spore Lizard</text>
</svg>
