<svg xmlns="http://www.w3.org/2000/svg" viewBox="0 0 320 200" font-family="sans-serif" role="img" aria-label="打击者 抽象示意图">
  <defs>
    <linearGradient id="bg" x1="0" y1="0" x2="0" y2="1">
      <stop offset="0" stop-color="#14161a"/>
      <stop offset="1" stop-color="#1c2026"/>
    </linearGradient>
  </defs>
  <rect width="320" height="200" rx="12" fill="url(#bg)"/>
  <rect x="0" y="0" width="320" height="6" rx="3" fill="#ff5470" opacity="0.9"/>
  <rect x="0.75" y="0.75" width="318.5" height="198.5" rx="11" fill="none" stroke="#ff5470" stroke-width="1.5" opacity="0.7"/>
  <path d="M0 60 L320 60 M0 130 L320 130" stroke="#ff5470" stroke-width="0.5" opacity="0.08"/>
  <circle cx="20" cy="22" r="4" fill="#ff5470"/>
  <text x="32" y="26" fill="#ff5470" font-size="10" letter-spacing="2">INDOOR</text>

<path d="M70 96 C70 70 110 60 140 70 L196 132 C200 142 192 152 180 150 L92 138 C76 134 70 116 70 96 Z" fill="#ff5470" opacity="0.45"/>
<path d="M84 86 L72 70 L94 76 Z" fill="#ff5470" opacity="0.7"/>
<path d="M78 108 L96 112 L84 122 L102 124 L92 134" stroke="#e8e8ec" stroke-width="3" fill="none" stroke-linejoin="round"/>
<path d="M120 138 L112 164 M150 142 L146 166" stroke="#ff5470" stroke-width="7" stroke-linecap="round"/>
<circle cx="92" cy="92" r="3.5" fill="#14161a"/>
  <circle cx="22" cy="182" r="3.6" fill="#ff5470" opacity="1"/><circle cx="34" cy="182" r="3.6" fill="#ff5470" opacity="1"/><circle cx="46" cy="182" r="3.6" fill="#ff5470" opacity="1"/>
  <text x="302" y="170" text-anchor="end" fill="#e8e8ec" font-size="17" font-weight="700">打击者</text>
  <text x="302" y="186" text-anchor="end" fill="#8b92a0" font-size="10" font-family="sans-serif">Thumper</text>
</svg>
