<svg xmlns="http://www.w3.org/2000/svg" viewBox="0 0 480 320" font-family="sans-serif" role="img" aria-label="公司大楼(Gordion) 外部布局示意图">
  <defs>
    <linearGradient id="sky" x1="0" y1="0" x2="0" y2="1">
      <stop offset="0" stop-color="#1e1e22"/>
      <stop offset="1" stop-color="#14161a"/>
    </linearGradient>
    <linearGradient id="gnd" x1="0" y1="0" x2="0" y2="1">
      <stop offset="0" stop-color="#3c3c42" stop-opacity="0.55"/>
      <stop offset="1" stop-color="#3c3c42" stop-opacity="0.18"/>
    </linearGradient>
    <filter id="glow" x="-80%" y="-80%" width="260%" height="260%">
      <feGaussianBlur stdDeviation="2.5" result="b"/>
      <feMerge><feMergeNode in="b"/><feMergeNode in="SourceGraphic"/></feMerge>
    </filter>
  </defs>
  <rect width="480" height="320" rx="10" fill="url(#sky)"/>
  <rect x="150" y="104" width="180" height="108" rx="4" fill="#2e2e36" opacity="0.95"/><rect x="150" y="104" width="180" height="16" fill="#3c3c46"/><rect x="172" y="136" width="22" height="18" fill="#1a1a20"/><rect x="208" y="136" width="22" height="18" fill="#1a1a20"/><rect x="250" y="136" width="22" height="18" fill="#1a1a20"/><rect x="286" y="136" width="22" height="18" fill="#1a1a20"/><rect x="226" y="170" width="30" height="42" fill="#15151a"/><rect x="166" y="170" width="44" height="26" fill="#1a1a20"/><text x="188" y="187" fill="#4ade80" font-size="11" text-anchor="middle" font-family="sans-serif">柜台</text>
  <path d="M0 212 L480 212 L480 320 L0 320 Z" fill="url(#gnd)"/>
  <path d="M60 250 L420 250" stroke="#4a4a52" stroke-width="2" opacity="0.4" stroke-dasharray="12 10"/>
  <rect x="84" y="228" width="52" height="24" rx="5" fill="#4ade80" opacity="0.18" stroke="#4ade80" stroke-width="1.5"/><g filter="url(#glow)"><path d="M106.5 238 L110 231 L113.5 238 Z" fill="#4ade80"/><rect x="106.5" y="238" width="7" height="9" rx="1.5" fill="#4ade80"/><path d="M106.5 247 L103 250 L106.5 244 Z" fill="#4ade80" opacity="0.8"/><path d="M113.5 247 L117 250 L113.5 244 Z" fill="#4ade80" opacity="0.8"/></g><rect x="76" y="252" width="68" height="16" rx="4" fill="#14161a" opacity="0.85"/><text x="110" y="264" text-anchor="middle" fill="#e8e8ec" font-size="10">飞船着陆区</text><g filter="url(#glow)"><path d="M233.0 224 L233.0 210.0 Q233.0 202 241 202 Q249.0 202 249.0 210.0 L249.0 224 Z" fill="#3ba9ff" opacity="0.3" stroke="#3ba9ff" stroke-width="1.8"/><circle cx="244.5" cy="215.0" r="1.4" fill="#3ba9ff"/></g><rect x="207" y="228" width="68" height="16" rx="4" fill="#14161a" opacity="0.85"/><text x="241" y="240" text-anchor="middle" fill="#e8e8ec" font-size="10">入口/柜台</text>
  <text x="20" y="34" fill="#e8e8ec" font-size="18" font-weight="800">公司大楼(Gordion)</text>
  <rect x="20" y="44" width="52" height="18" rx="9" fill="#4ade80" opacity="0.18" stroke="#4ade80" stroke-width="1"/>
  <text x="46.0" y="57" text-anchor="middle" fill="#4ade80" font-size="11" font-weight="700">Safe</text>
  <rect x="362" y="8" width="110" height="42" rx="6" fill="#14161a" opacity="0.72" stroke="#2c3038" stroke-width="1"/><rect x="372" y="17" width="14" height="10" rx="2" fill="#4ade80" opacity="0.25" stroke="#4ade80" stroke-width="1.2"/><text x="392" y="26" fill="#aab1bd" font-size="10">飞船着陆区</text><path d="M374.5 44 L374.5 37.5 Q374.5 33 379 33 Q383.5 33 383.5 37.5 L383.5 44 Z" fill="#3ba9ff" opacity="0.3" stroke="#3ba9ff" stroke-width="1.8"/><circle cx="379.0" cy="40.5" r="1.4" fill="#3ba9ff"/><text x="392" y="43" fill="#aab1bd" font-size="10">入口/柜台</text>
  <text x="460" y="299" text-anchor="end" fill="#8b92a0" font-size="10" font-weight="600">71-Gordion</text>
  <text x="460" y="313" text-anchor="end" fill="#6b7280" font-size="10">示意图,非实际比例</text>
  <rect x="1" y="1" width="478" height="318" rx="9" fill="none" stroke="#2c3038" stroke-width="2"/>
</svg>
